<svg xmlns="http://www.w3.org/2000/svg" viewBox="0 0 100 100">
  <rect width="100" height="100" fill="#FAFAF8"/>
  <circle cx="50" cy="50" r="46" fill="none" stroke="#111" stroke-width="1.8"/>
  <!-- Cardinal thick rays -->
  <rect x="47.75" y="4"  width="4.5" height="17" rx="0.8" fill="#111"/>
  <rect x="47.75" y="79" width="4.5" height="17" rx="0.8" fill="#111"/>
  <rect x="4"  y="47.75" width="17" height="4.5" rx="0.8" fill="#111"/>
  <rect x="79" y="47.75" width="17" height="4.5" rx="0.8" fill="#111"/>
  <!-- Diagonal slim rays -->
  <rect x="48.9" y="5.5" width="2.2" height="12" rx="0.8" fill="#111" transform="rotate(45,50,50)"/>
  <rect x="48.9" y="5.5" width="2.2" height="12" rx="0.8" fill="#111" transform="rotate(135,50,50)"/>
  <rect x="48.9" y="5.5" width="2.2" height="12" rx="0.8" fill="#111" transform="rotate(225,50,50)"/>
  <rect x="48.9" y="5.5" width="2.2" height="12" rx="0.8" fill="#111" transform="rotate(315,50,50)"/>
  <!-- Sun body -->
  <circle cx="50" cy="50" r="19" fill="#111"/>
  <circle cx="50" cy="50" r="11.5" fill="#FAFAF8"/>
  <circle cx="50" cy="50" r="3.8" fill="#111"/>
</svg>